<?xml version="1.0" encoding="UTF-8"?>
<svg id="Capa_1" data-name="Capa 1" xmlns="http://www.w3.org/2000/svg" viewBox="635 1143 1770 845">
  <g>
    <path d="m1284.18,1564.89c0,70.31-19.71,126.85-59.09,169.63-39.41,42.8-91.87,64.19-157.4,64.19s-119.17-21.2-158.56-63.61c-39.4-42.41-59.09-99.14-59.09-170.21,0-31.7,4.07-60.33,11.74-86.23h-208.3c-5.46,27.59-8.23,56.33-8.23,86.23,0,78.71,18.91,149.58,56.75,212.62,37.83,63.03,88.93,112.14,153.29,147.28,64.36,35.16,135.16,52.72,212.39,52.72s147.83-17.57,211.81-52.72c63.95-35.14,114.67-84.25,152.11-147.28,37.45-63.04,56.17-133.91,56.17-212.62,0-29.9-2.71-58.64-8.06-86.23h-207.49c7.81,25.96,11.94,54.59,11.94,86.23Z" fill="#fff"/>
    <path d="m1280.08,1206.14c-64.35-35.14-135.15-52.72-212.39-52.72s-148.02,17.59-212.39,52.72c-53.29,29.11-97.35,67.8-132.46,115.77h688.88c-34.57-47.96-78.35-86.66-131.65-115.77Z" fill="#fff"/>
  </g>
  <g>
    <path d="m1846.75,1566.04c0-70.31,19.71-126.85,59.09-169.63,39.41-42.8,91.87-64.19,157.4-64.19s119.17,21.2,158.56,63.61c39.4,42.41,59.09,99.14,59.09,170.21,0,31.7-4.07,60.33-11.74,86.23h208.3c5.46-27.59,8.23-56.33,8.23-86.23,0-78.71-18.91-149.58-56.75-212.62-37.83-63.03-88.93-112.14-153.29-147.28-64.36-35.16-135.16-52.72-212.39-52.72s-147.83,17.57-211.81,52.72c-63.95,35.14-114.67,84.25-152.11,147.28-37.45,63.04-56.17,133.91-56.17,212.62,0,29.9,2.71,58.64,8.06,86.23h207.49c-7.81-25.96-11.94-54.59-11.94-86.23Z" fill="#fff"/>
    <path d="m1850.85,1924.79c64.35,35.14,135.15,52.72,212.39,52.72s148.02-17.59,212.39-52.72c53.29-29.11,97.35-67.8,132.46-115.77h-688.88c34.57,47.96,78.35,86.66,131.65,115.77Z" fill="#fff"/>
  </g>
</svg>