<?xml version="1.0" encoding="UTF-8"?>
<svg id="Capa_1" data-name="Capa 1" xmlns="http://www.w3.org/2000/svg" viewBox="214 1357 2702 417">
  <path d="m530.75,1565.19c0,33.8-9.48,60.98-28.4,81.54-18.94,20.58-44.16,30.86-75.66,30.86s-57.29-10.19-76.22-30.58c-18.94-20.39-28.41-47.66-28.41-81.82,0-15.24,1.96-29,5.65-41.45h-100.13c-2.63,13.26-3.95,27.08-3.95,41.45,0,37.83,9.09,71.9,27.28,102.21,18.18,30.3,42.75,53.91,73.69,70.8,30.94,16.9,64.97,25.34,102.09,25.34s71.06-8.45,101.82-25.34c30.74-16.89,55.12-40.5,73.12-70.8,18-30.3,27-64.37,27-102.21,0-14.37-1.3-28.19-3.88-41.45h-99.74c3.75,12.48,5.74,26.24,5.74,41.45Z" fill="#171717"/>
  <path d="m528.78,1392.74c-30.93-16.89-64.97-25.34-102.09-25.34s-71.15,8.45-102.09,25.34c-25.62,13.99-46.8,32.59-63.67,55.65h331.15c-16.62-23.06-37.67-41.66-63.29-55.65Z" fill="#171717"/>
  <rect x="931.81" y="1372.9" width="96.19" height="75.48" fill="#171717"/>
  <rect x="697.25" y="1372.9" width="96.19" height="75.48" fill="#171717"/>
  <path d="m931.81,1604.31c0,23.14-6,40.96-18,53.44-12.01,12.49-29.25,18.73-51.75,18.73s-39.57-6.24-51.19-18.73c-11.63-12.48-17.44-30.3-17.44-53.44v-80.57h-96.19v80.02c0,34.53,7.12,63.82,21.37,87.88,14.25,24.06,33.66,42.06,58.22,54,24.56,11.94,52.4,17.91,83.53,17.91s59.34-6.06,84.66-18.18c25.31-12.12,45.46-30.11,60.47-54,14.99-23.87,22.5-53.08,22.5-87.6v-80.02h-96.19v80.57Z" fill="#171717"/>
  <rect x="1195.63" y="1523.74" width="96.19" height="235.94" fill="#171717"/>
  <polygon points="1291.82 1448.38 1396.44 1448.38 1396.44 1372.9 1091 1372.9 1091 1448.38 1195.63 1448.38 1195.63 1448.38 1291.82 1448.38 1291.82 1448.38" fill="#171717"/>
  <polygon points="1733.94 1372.9 1454.93 1372.9 1454.93 1448.38 1733.96 1448.38 1733.94 1372.9" fill="#171717"/>
  <polygon points="1454.93 1688.05 1454.93 1759.68 1733.94 1759.68 1733.94 1682.54 1564.06 1682.54 1677.4 1523.74 1571.43 1523.74 1454.93 1688.05" fill="#171717"/>
  <polygon points="1813.81 1759.68 2055.68 1759.68 2055.68 1684.2 1909.99 1684.2 1909.99 1599.35 2038.81 1599.35 2038.81 1523.73 1909.99 1523.74 1909.99 1523.74 1813.81 1523.74 1813.81 1759.68" fill="#171717"/>
  <polygon points="1909.99 1448.38 2055.68 1448.38 2055.68 1372.9 1813.81 1372.9 1813.81 1448.38 1909.99 1448.38 1909.99 1448.38" fill="#171717"/>
  <path d="m2425.24,1432.68c-10.89-18.54-27.28-33.14-49.22-43.8-21.93-10.65-48.47-15.98-79.59-15.98h-161.44v75.48h297.92c-2.16-5.39-4.69-10.63-7.66-15.7Z" fill="#171717"/>
  <path d="m2330.46,1534.33c-8.81,8.45-22.04,12.67-39.66,12.67h-59.63v-23.27h-96.19v235.94h96.19v-146.01h23.07l82.12,146.01h108.57l-91.13-153.17c28.87-8.45,50.71-22.77,65.53-42.97,8.98-12.25,15.2-25.52,18.73-39.8h-99.77c-2.04,3.99-4.64,7.53-7.84,10.6Z" fill="#171717"/>
  <path d="m2600.17,1565.74c0-33.8,9.48-60.98,28.4-81.54,18.95-20.58,44.16-30.86,75.66-30.86s57.29,10.19,76.22,30.58c18.94,20.39,28.4,47.66,28.4,81.82,0,15.24-1.95,29-5.64,41.45h100.13c2.63-13.26,3.96-27.08,3.96-41.45,0-37.83-9.09-71.9-27.28-102.21-18.19-30.3-42.75-53.91-73.69-70.8-30.94-16.9-64.97-25.34-102.1-25.34s-71.06,8.45-101.81,25.34c-30.74,16.89-55.12,40.5-73.12,70.8-18,30.3-27,64.37-27,102.21,0,14.37,1.3,28.19,3.88,41.45h99.74c-3.75-12.48-5.74-26.24-5.74-41.45Z" fill="#171717"/>
  <path d="m2602.14,1738.19c30.93,16.89,64.97,25.34,102.09,25.34s71.16-8.45,102.1-25.34c25.62-13.99,46.79-32.59,63.67-55.65h-331.15c16.62,23.06,37.67,41.66,63.29,55.65Z" fill="#171717"/>
</svg>