<?xml version="1.0" encoding="UTF-8"?>
<svg id="ICONS" xmlns="http://www.w3.org/2000/svg" viewBox="0 0 600 600">
  <path d="m461.78,274.51l-68.99-16.06,24.86-50.79c.91-2.13,1.36-4.42,1.36-6.85,0-5.17-2.13-10.27-5.85-14.01-5.7-5.68-14.16-7.29-21.89-3.99l-49.79,24.37-16.38-70.14c-4.12-10.35-14.01-17.04-25.15-17.04s-21.02,6.69-25.49,18.12l-16.06,69.03-50.8-24.88c-6.7-2.8-15.37-.93-20.81,4.51-5.68,5.68-7.32,14.14-4,21.9l24.37,49.78-70.12,16.36c-10.35,4.14-17.03,14.01-17.03,25.17s6.69,21.01,18.11,25.5l69.01,16.06-24.89,50.82c-.88,2.13-1.32,4.42-1.32,6.81,0,5.17,2.13,10.27,5.85,14.01,3.72,3.72,8.62,5.7,13.74,5.7,2.71,0,5.47-.55,8.16-1.69l49.77-24.37,16.36,70.12c4.12,10.35,14.01,17.05,25.16,17.05s21.01-6.69,25.49-18.13l16.06-69.03,50.77,24.88c2.11.88,4.41,1.33,6.84,1.33,5.16,0,10.24-2.11,14.01-5.83,5.68-5.68,7.3-14.13,4-21.9l-24.37-49.8,70.1-16.36c10.35-4.14,17.05-14.01,17.05-25.17s-6.69-21.03-18.13-25.5h0Zm-64.27-78.06c1.74-.75,3.7-.37,5.04.96.93.91,1.47,2.19,1.47,4.02l-26.23,53.53-26.6-6.19-6.21-26.59,52.53-25.72Zm-201.07,6c-.75-1.77-.37-3.7.96-5.04.91-.91,2.19-1.45,4.02-1.47l53.5,26.23-6.19,26.61-26.59,6.21-25.72-52.53h.01Zm6,201.13c-1.75.76-3.7.37-5.04-.94-.91-.93-1.47-2.19-1.47-4.05l26.23-53.52,26.6,6.19,6.21,26.59-52.51,25.72h-.01Zm201.07-5.98c.75,1.75.37,3.7-.93,5.02-.93.93-2.2,1.47-4.06,1.48l-53.5-26.23,6.19-26.61,26.59-6.21,25.72,52.54Zm54.88-86.68l-115.14,26.8c-2.79.66-4.95,2.82-5.61,5.61l-26.45,114.07c-1.84,4.63-6.25,7.62-11.23,7.62s-9.39-2.98-10.9-6.54l-26.8-115.17c-.64-2.79-2.82-4.95-5.61-5.61l-114.06-26.46c-4.62-1.84-7.6-6.25-7.6-11.23s2.98-9.39,6.52-10.9l115.15-26.8c2.79-.64,4.96-2.82,5.61-5.61l26.45-114.09c1.84-4.62,6.25-7.6,11.23-7.6s9.37,2.98,10.89,6.52l26.8,115.18c.66,2.79,2.82,4.96,5.61,5.61l114.04,26.46c4.63,1.84,7.62,6.25,7.62,11.23s-2.98,9.37-6.54,10.89l.02.02Zm-143.42-10.89c0,8.28-6.72,15-15,15s-15-6.72-15-15,6.72-15,15-15,15,6.72,15,15Z" fill="#fff"/>
</svg>