<?xml version="1.0" encoding="UTF-8"?>
<svg id="ICONS" xmlns="http://www.w3.org/2000/svg" viewBox="0 0 600 600">
  <path d="m250.43,465.37c4.93-.35,9.31-1.82,13.43-4.03,4.65-2.49,9.11-5.35,13.88-7.58,17.53-8.21,34.58-7.01,50.91,3.34,6.42,4.07,13.06,7.34,20.72,8.36,7.8,1.04,15.16-.21,22.12-3.72,5.12-2.59,9.98-5.71,15.18-8.1,15.27-7.03,30.5-7.64,45.43,1.11,6.42,3.76,12.76,7.61,20.13,9.39,6.57,1.58,13.22,1.93,19.9,1.63,5.08-.22,7.69,3.05,7.87,6.44.2,3.89-3.07,6.94-7.56,7.21-11.92.7-23.59-.27-34.47-5.69-3.46-1.72-6.8-3.72-10.1-5.76-11.88-7.33-24.03-7.34-36.33-1.29-5.98,2.94-11.69,6.45-17.76,9.16-7.97,3.55-16.47,3.9-25.11,3.32-10.97-.73-20.06-6.1-29.23-11.27-7.45-4.2-15.17-6.55-23.8-5.36-5.71.79-10.84,3.04-15.82,5.8-4.75,2.63-9.36,5.67-14.39,7.58-14.27,5.42-28.56,5.01-42.48-1.5-4.56-2.13-9-4.55-13.41-6.98-12.32-6.81-24.51-7.21-36.86.08-6.73,3.97-13.44,8.09-21.09,10.19-7.96,2.18-16.11,2.42-24.27,2.06-2.91-.13-5.32-1.65-6.55-4.53-2.2-5.11.64-9.29,6.17-9.21,3.42.05,6.84.02,10.25-.12,9.06-.37,17.25-3.42,24.85-8.25,5.05-3.21,10.17-6.28,16.07-7.69,12.51-2.99,24.49-1.44,35.91,4.44,5.44,2.8,10.73,5.92,16.28,8.47,5.28,2.43,5.42,2.19,7.53-3.16,16.92-42.84,33.83-85.68,50.73-128.52,2.96-7.49,5.87-15,8.92-22.79-3.55-1.09-7.07-2.18-10.59-3.23-40.26-11.99-80.52-23.97-120.78-35.95-.96-.29-1.93-.58-2.86-.96-3.64-1.52-5.15-4.42-4.2-8.26,1.95-7.91,5.71-15.05,9.74-22.02,22.72-39.21,56.22-63.84,100.4-73.91,16.33-3.72,32.86-4.72,49.54-3.29,32.34,2.78,61.05,14.58,85.97,35.3,26.29,21.86,42.75,49.8,50.22,83.1,3.22,14.35,4.39,28.88,3.11,43.52-.66,7.63-1.95,15.22-3.37,22.76-1.18,6.29-4.9,8.27-11.12,6.42-21.56-6.44-43.11-12.92-64.67-19.39-22.52-6.75-45.05-13.51-67.57-20.25-.14-.04-.3.01-.7.04-20,50.9-40.03,101.89-60.16,153.12Zm117.64-150.35c.15-.86.33-1.53.37-2.2.36-4.96.69-9.92,1.03-14.87.93-13.29.9-26.57-.03-39.86-1.06-15.21-3.8-30.12-8.01-44.75-3.28-11.39-7.92-22.16-15.34-31.57-1.22-1.55-9.74-4.33-11.34-3.76-11.83,4.18-22.09,10.86-31.18,19.42-17.03,16.03-31.4,34.23-43.37,54.27-5.15,8.61-9.68,17.59-14.68,26.73,41.19,12.3,81.7,24.4,122.54,36.59Zm-2.49-127.51c9.56,17.58,13.42,36.19,15.9,55.15,1.04,7.92,1.7,15.91,2.02,23.89.35,8.77.32,17.58.04,26.36-.28,8.68-1.08,17.34-1.67,26.27,20.06,6.03,40.16,12.08,60.66,18.24,4.73-29.39,2.02-57.51-10.69-84.32-14.05-29.62-36.24-51.13-66.26-65.61Zm-132.47,87.26c1.17-2.63,2.22-5.2,3.43-7.7,10.45-21.72,23.51-41.76,39-60.21,7.4-8.82,15.04-17.45,24.15-24.59,3.5-2.74,7.21-5.2,10.84-7.81-58.41-3.38-113.01,29.77-136.07,82.61,19.55,5.9,39.06,11.78,58.66,17.7Z" fill="#fff"/>
</svg>