<?xml version="1.0" encoding="UTF-8"?>
<svg id="ICONS" xmlns="http://www.w3.org/2000/svg" viewBox="0 0 600 600">
  <g id="zMjBgf">
    <path d="m241.27,220.08c2.69-8.98,5.14-17.82,7.99-26.54,6.11-18.7,13.36-36.92,23.52-53.85,3.68-6.13,7.53-12.19,13.43-16.56,5.4-4,10.88-4.21,16.6-.62,5.04,3.17,8.56,7.78,11.81,12.62,12.45,18.55,21.33,38.79,28.75,59.79,10.35,29.29,18.18,59.27,25.29,89.46.79,3.36,1.56,6.73,2.19,9.5,4.25-7.34,8.37-15.11,13.15-22.45,2.47-3.79,5.76-7.27,9.31-10.11,7.97-6.37,17.98-4.82,24.05,3.37,5.9,7.97,9.97,16.97,13.83,26.01,8.87,20.78,15.28,42.39,21.06,64.19,4.17,15.75,8.48,31.47,12.3,47.3,4.75,19.69,9.05,39.48,13.55,59.22.79,3.46,1.81,6.89,2.33,10.4.79,5.38-3.6,7.77-7.41,7.77-15.77,0-31.53.04-47.3.11-21.82.1-43.63.24-65.45.32-1.58,0-3.18-.17-4.73-.48-3.65-.73-5.65-2.93-6.01-6.67-1.12-11.73-1.95-56.47-6.76-67.31-5.62-12.65-14-22.82-27.15-28-18.11-7.14-40.63-3.41-55.26,12.66-11.76,12.91-19.45,61.43-19.9,78.98,0,.32,0,.64-.02.96-.32,7.28-3.02,9.9-10.39,9.88-33.36-.09-66.73-.25-100.09-.27-9.96,0-11.35-4.68-10.07-12.36,6.8-40.56,16.9-80.37,28.14-119.86,10.02-35.24,22.02-69.84,36.68-103.46,5.04-11.56,10.44-22.97,17.89-33.24,3.09-4.26,6.93-7.66,12.27-8.87,5.43-1.22,10.29.59,14.1,4.05,4.19,3.81,7.61,8.47,11.36,12.77.31.35.55.76.93,1.29Zm54.45-84.67c-4.07,3.2-6.99,6.82-9.04,10.92-5.61,11.27-11.41,22.49-16.2,34.11-8.09,19.63-14.42,39.85-18.04,60.85-.69,3.98-2.88,6.47-6.12,7.06-3.83.71-6.25-1.22-8.27-4.27-5.17-7.8-10.4-15.58-15.78-23.23-2.73-3.88-5.84-3.85-8.22.2-4.41,7.52-8.88,15.04-12.59,22.91-13.36,28.31-23.78,57.79-32.91,87.67-11.85,38.81-21.96,78.12-30.54,117.79-1.11,5.14-1.76,10.38-2.61,15.49h90.18c1.33-12.14,6.73-50.84,12.08-66.39,14.84-23.72,25.61-37.84,51.85-40.92,11.04-1.3,21.75.09,31.85,4.74,17.08,7.86,27.9,21.56,35.12,38.48,3.7,8.65,4.67,17.81,6.2,27.03.14,5.63,1.75,37.94,3.82,37.91,26.43-.4,52.86-.68,79.29-1.03,5.92-.08,11.84-.29,17.82-.44-.36-1.85-.6-3.42-.98-4.95-7.6-30.95-15.15-61.92-22.87-92.84-5.08-20.34-10.46-40.61-18.16-60.16-4.36-11.05-8.87-22.04-15.49-32.03-1.27-1.92-2.29-1.9-3.97-.65-4.2,3.13-6.95,7.4-9.51,11.8-6.87,11.82-12.22,24.29-15.92,37.46-1.16,4.14-3.84,6.28-7.62,6.23-3.73-.05-6.42-2.3-7.42-6.45-.95-3.92-1.74-7.88-2.58-11.83-6.96-32.74-15.23-65.15-25.38-97.06-7.54-23.7-17.34-46.42-30.46-67.61-2.28-3.68-4.98-7.11-7.56-10.78Z" fill="#fff"/>
  </g>
</svg>