<?xml version="1.0" encoding="UTF-8"?>
<svg id="ICONS" xmlns="http://www.w3.org/2000/svg" viewBox="0 0 600 600">
  <g id="KSWy4E">
    <path d="m233.95,466.89c-5.91,3.03-11.35,6.56-17.28,8.72-21.15,7.68-41.2,5.21-59.66-7.94-1.68-1.2-2.56-.91-3.96.15-6.57,4.94-13.57,9.13-21.5,11.53-4.73,1.43-9.32-.76-10.88-5.1-1.59-4.42.33-8.7,5.11-10.55,8.41-3.24,15.88-7.84,22.51-14,4.67-4.34,8.48-4.01,13.11.41,17.53,16.72,45.36,17.26,63.71,1.24,1.06-.93,2.11-1.87,3.2-2.76,3.53-2.87,7.8-2.81,10.98.45,7.16,7.34,15.83,11.69,25.84,13.6,1.44.28,2.17.02,2.94-1.33,9.12-16.06,18.34-32.07,27.48-48.12.58-1.02.97-2.32.98-3.48.08-15.04,0-30.09.16-45.13.02-2.25.61-4.7,1.66-6.69,4.64-8.83,9.57-17.5,14.3-26.28.47-.88.7-2.28.34-3.15-6.34-15.2-9.07-31.05-8.87-47.47.04-3.59,0-7.19,0-10.91-4.44.84-8.69,1.62-12.94,2.47-3.23.65-5.68-.53-7.46-3.16-12.31-18.24-24.6-36.49-36.88-54.75-4.62-6.86-9.2-13.75-13.79-20.63-2.75-4.13-2.7-8.9.43-11.51,1.3-1.09,3.11-1.75,4.8-2.18,26.05-6.6,52.12-13.13,78.19-19.63,1.72-.43,3.55-.66,5.32-.66,49.6-.03,99.19-.03,148.79-.03,5.98,0,9.36,3.17,9.41,9.16.08,9.56-.03,19.12-.03,28.67,0,85.87,0,171.75.03,257.62,0,2.74-.66,5.1-2.66,6.98-9.77,9.14-21.21,15.01-34.51,16.78-16.66,2.21-31.68-2-44.97-12.31-.18-.14-.39-.23-.45-.27-27.22,18.14-54.3,17.48-81.62.06-12.25,8.18-25.82,13.08-40.95,13.16-15.14.08-28.84-4.32-40.86-12.96Zm79.08-61.31c.72-.2,1.25-.31,1.75-.48,20.05-6.64,40.09-13.3,60.14-19.92,10.49-3.46,19.91-8.56,27.02-17.27,5.05-6.18,10.03-12.41,15.11-18.56,3.09-3.74,6.13-7.55,9.54-10.98,4.56-4.59,11.06-2.62,13,3.59,1.05,3.37-.32,6-2.23,8.43-6.05,7.67-12.29,15.2-18.28,22.92-9.35,12.04-20.44,21.66-35.21,26.5-24.72,8.1-49.42,16.27-74.11,24.49-1.06.35-2.2,1.2-2.78,2.14-3.88,6.22-7.65,12.51-11.38,18.82-3.19,5.4-6.29,10.86-9.53,16.47.55,0,.79.05.99,0,8.63-2.18,16.38-5.94,22.62-12.46,2.1-2.19,4.82-3.22,7.68-2.33,1.99.62,3.85,1.99,5.47,3.39,11.79,10.2,25.47,14.21,40.81,12.33,10.86-1.34,20.21-6.12,28-13.84,1.61-1.59,3.5-2.2,5.72-2.15,2.53.05,4.45,1.27,6.17,2.96,8.42,8.26,18.54,12.92,30.29,13.47,10.43.48,19.75-2.99,28.13-9.17,1.15-.85,1.56-1.67,1.56-3.07-.06-90.74-.08-181.48-.11-272.22,0-.61-.06-1.21-.11-2.06-.89,0-1.65,0-2.41,0-45.61-.01-91.21-.03-136.82-.01-1.55,0-3.14.16-4.64.54-17.1,4.31-34.18,8.66-51.26,13.02-4.92,1.26-9.84,2.55-14.83,3.84.21.46.27.69.4.88,13.23,19.7,26.44,39.4,39.75,59.04.45.66,1.92,1.17,2.72.97,9.25-2.37,18.49-4.78,27.67-7.41,12.92-3.7,23.32-10.79,30.54-22.46,2.3-3.71,5.68-6.86,8.97-9.83,4.75-4.29,10.63-6.78,16.61-8.87,10.85-3.79,21.73-7.52,32.66-11.07,3.98-1.29,7.27.5,9.02,4.24,1.74,3.74.86,7.76-2.33,10.06-1.05.76-2.31,1.3-3.54,1.75-8.76,3.17-17.47,6.51-26.34,9.35-10.09,3.23-18.41,8.53-24.15,17.68-6.87,10.94-16.86,18.03-28.9,22.37-5.24,1.89-10.51,3.71-16.29,5.75.44,10.19.7,20.58,1.39,30.95.57,8.54,3.62,16.48,6.81,24.37.32-.09.55-.13.76-.2,13.9-4.73,27.79-9.48,41.7-14.17,4.78-1.61,9.05.54,10.62,5.19,1.53,4.53-.59,8.94-5.46,10.61-15.65,5.36-31.34,10.57-46.99,15.92-.98.34-2.07,1.13-2.57,2.02-4.23,7.55-8.36,15.15-12.43,22.78-.55,1.04-.88,2.33-.89,3.51-.07,9.32-.04,18.65-.04,27.97,0,3.36,0,6.72,0,10.24Z" fill="#fff"/>
  </g>
</svg>