<?xml version="1.0" encoding="UTF-8"?>
<svg id="ICONS" xmlns="http://www.w3.org/2000/svg" viewBox="0 0 600 600">
  <path d="m405.96,227.74c-9.87-3.95-20.42-5.95-31.35-5.95h-149.22c-1.2,0-2.4.03-3.59.08v-102.75c0-4.42-3.58-8-8-8h-34.97c-2.12,0-4.16.84-5.66,2.34s-2.34,3.54-2.34,5.66v122.1c-18.92,15.36-29.38,37.93-29.38,64.78,0,33.16,15.15,52.41,29.38,63.18v24.45c0,23.89,9.83,43.82,28.41,57.65,12.47,9.28,26.73,14.37,38.14,17.16v.42c0,11.03,8.46,20,18.87,20h68.08c10.4,0,18.87-8.97,18.87-20v-43.41c0-11.03-8.46-20-18.87-20h-68.08c-7.45,0-13.89,4.61-16.95,11.27-13.29-6.27-15.01-14.22-15.19-15.38,0-.04,0-.01,0-.03,0-.02,0-.03,0-.04,0-.02,0-.04,0-.07l-1.22-14.77h0c11.83,0,32.13-3.51,61.63-20.24,5.21-2.96,10.42-4.68,15.49-5.12,5.07.44,10.27,2.16,15.49,5.12,29.5,16.73,49.8,20.24,61.63,20.24h0c2.29,0,4.49-.13,6.53-.38l.19-.02c.49-.06.97-.12,1.47-.17,6.63-.61,23.78-3.18,39.87-13.84,15.22-10.09,33.37-29.73,33.37-66.01s-19.17-64.9-52.59-78.27Zm-219.13-100.62h18.97v96.91c-4.01.94-7.94,2.17-11.76,3.7-2.49.99-4.88,2.08-7.21,3.24v-103.86Zm66.55,298.34c0-2.29,1.51-4,2.87-4h68.08c1.35,0,2.87,1.71,2.87,4v43.41c0,2.29-1.51,4-2.87,4h-68.08c-1.35,0-2.87-1.71-2.87-4v-43.41Zm-16,7.83v18.64c-22.16-6.17-50.55-21.3-50.55-58.29v-15.08c7.4,3.27,14.4,5.11,19.85,6.15l1.47,17.81h0c.22,2.5,2.69,20.58,29.24,30.78Zm178.96-74.62c-13.06,8.66-27.08,10.75-32.5,11.25-.68.06-1.33.14-1.99.23l-.18.02c-1.38.17-2.92.26-4.55.26-9.91,0-27.27-3.15-53.74-18.16-7.5-4.25-15.19-6.68-22.83-7.2h-1.1c-7.65.53-15.33,2.95-22.83,7.2-26.47,15.01-43.83,18.16-53.74,18.16-1.63,0-3.17-.09-4.65-.27-.68-.09-1.37-.17-2.06-.24-5.42-.5-19.45-2.59-32.51-11.25-11.96-7.92-26.21-23.49-26.21-52.67s15.5-52.6,42.53-63.41c7.97-3.19,16.52-4.81,25.41-4.81h149.22c8.89,0,17.44,1.62,25.41,4.81,27.03,10.81,42.53,33.93,42.53,63.41s-14.25,44.75-26.21,52.67Z" fill="#fff"/>
  <path d="m397.79,248.17c-7.26-2.9-15.06-4.38-23.18-4.38h-149.22c-8.12,0-15.92,1.47-23.18,4.38-14.48,5.79-38.76,21.01-38.76,57.84,0,26.52,12.79,40.56,23.52,47.67,11.92,7.9,24.77,9.82,29.74,10.27.79.07,1.57.17,2.35.27,5.99.76,23.3.58,54.6-17.16,8.61-4.88,17.47-7.58,26.34-8.03,8.87.45,17.73,3.15,26.34,8.03,26.16,14.83,42.54,17.39,50.72,17.39,1.6,0,2.89-.1,3.88-.22.79-.1,1.57-.2,2.36-.27,4.97-.46,17.81-2.37,29.73-10.27,10.73-7.11,23.52-21.15,23.52-47.67,0-36.84-24.29-52.05-38.76-57.84Zm8.61,95.51c-9.92,6.57-21.03,8.04-24.2,8.33-.92.08-1.83.2-2.76.31-2.66.33-17.48,1.15-47.18-15.69-10.36-5.87-21.12-9.1-31.99-9.59h-.54c-10.87.49-21.63,3.72-31.99,9.59-29.7,16.84-44.51,16.03-47.19,15.69-.92-.11-1.83-.23-2.75-.31-3.17-.29-14.29-1.75-24.21-8.33-12.04-7.98-18.15-20.65-18.15-37.67,0-28.28,16.98-41,31.22-46.7,5.83-2.33,12.13-3.52,18.72-3.52h149.22c6.59,0,12.89,1.18,18.73,3.52,14.24,5.7,31.22,18.42,31.22,46.7,0,17.01-6.11,29.69-18.15,37.67Z" fill="#fff"/>
</svg>