<?xml version="1.0" encoding="UTF-8"?>
<svg id="ICONS" xmlns="http://www.w3.org/2000/svg" viewBox="0 0 600 600">
  <path d="m295.69,377.73c-8.68-.11-14.85-3.93-19.08-11.5-3.24-5.81-10-5.63-13.51.08-9.33,15.15-27.85,15.22-37.05.14-3.62-5.92-10.38-6.06-13.72-.04-4.07,7.33-10.06,11.07-18.41,11.32-3.86.12-6.62,2.75-7.17,6.38-.52,3.46,1.64,6.89,5.37,7.91,1.74.48,3.69.52,5.51.35,8.22-.74,15.36-3.98,21.41-9.87,12.99,12.48,35.23,14.21,51.04.14.84.72,1.67,1.46,2.53,2.17,6.55,5.32,14.13,7.82,22.49,7.72,4.6-.05,7.61-3.3,7.57-7.56-.03-4.02-2.86-7.2-6.99-7.25Z" fill="#fff"/>
  <path d="m395.12,429.18c-3.24-5.81-10-5.63-13.51.08-9.33,15.15-27.85,15.22-37.05.14-3.61-5.92-10.38-6.06-13.72-.04-4.07,7.33-10.06,11.07-18.41,11.32-3.86.12-6.62,2.75-7.17,6.38-.52,3.46,1.64,6.89,5.37,7.91,1.74.48,3.69.52,5.51.35,8.22-.74,15.36-3.98,21.41-9.87,12.99,12.48,35.23,14.21,51.04.14.84.72,1.67,1.46,2.53,2.17,6.55,5.32,14.13,7.82,22.49,7.72,4.6-.05,7.61-3.3,7.57-7.56-.03-4.02-2.86-7.2-6.99-7.25-8.68-.11-14.85-3.93-19.08-11.5Z" fill="#fff"/>
  <path d="m507.53,294.04h0l-18.88-32.71c5.69-1.65,10.56-5.42,13.65-10.76,4.23-7.32,4.23-16.06,0-23.38l-16.22-28.09c2.87-2.38,5.17-5.45,6.66-8.97,2.85-6.78,2.37-14.33-1.32-20.72l-31.43-54.44c-4.23-7.32-11.8-11.69-20.25-11.69s-16.02,4.37-20.25,11.69l-31.43,54.44c-3.69,6.39-4.17,13.95-1.32,20.72,1.48,3.52,3.79,6.58,6.65,8.97l-16.22,28.09c-4.23,7.32-4.23,16.06,0,23.38,3.09,5.34,7.95,9.12,13.65,10.76l-18.88,32.71c-4.23,7.32-4.23,16.06,0,23.38,4.23,7.32,11.79,11.69,20.25,11.69h40.05v47.71c-2.78-.77-5.58-1.51-8.38-2.21-13.86-3.45-26.36-9.07-35.75-20.17-8.02-9.48-18.3-15.26-29.79-19.33-16.66-5.89-33.83-9.33-51.42-10.7-.81-.06-1.61-.13-2.42-.19v-20.94h34.93c8.1,0,15.35-4.19,19.4-11.2,4.05-7.01,4.05-15.39,0-22.4l-17.36-30.06c5.19-1.67,9.61-5.2,12.46-10.12,4.05-7.01,4.05-15.39,0-22.4l-14.97-25.93c2.59-2.24,4.68-5.08,6.04-8.31,2.73-6.49,2.27-13.73-1.26-19.85l-29.42-50.96c-4.05-7.01-11.3-11.2-19.4-11.2s-15.35,4.19-19.4,11.2l-29.42,50.96c-3.54,6.12-4,13.36-1.26,19.85,1.36,3.23,3.45,6.07,6.04,8.31l-14.97,25.93c-4.05,7.01-4.05,15.38,0,22.4,2.84,4.92,7.27,8.46,12.46,10.12l-17.36,30.06c-4.05,7.01-4.05,15.39,0,22.4,4.05,7.01,11.3,11.2,19.4,11.2h39.09v19.78c-7.1-.51-14.21-.94-21.33-1.11-20.29-.49-40.49.94-60.6,3.89-10.92,1.6-21.77,3.42-32.31,6.76-12.36,3.91-24.03,9.07-32.88,19.05-5.78,6.52-8.63,13.94-6.8,22.76,1.02,4.94,3.7,9.05,6.42,13.17,4.17,6.31,3.43,9.08-3.28,12.37-6.17,3.03-12.44,5.84-18.6,8.88-8.72,4.32-17.13,9.07-23.55,16.7-8.8,10.46-9.71,24.34-2.12,35.63,3.81,5.66,8.83,10.13,14.38,14.01,12.12,8.48,25.81,13.51,39.85,17.6,28.34,8.26,57.45,12.08,86.78,14.27,14.87,1.11,29.8,1.34,48.19,2.11,17.4-1.06,38.26-1.96,59.04-3.73,13.26-1.13,26.46-3.26,39.6-5.46,23.03-3.86,45.47-10,67.09-18.93,13.91-5.75,27.02-12.71,37.54-23.9,12.89-13.72,14.32-31.64,3.36-46.98-7.37-10.32-17.37-17.4-28.69-22.74-4.7-2.22-9.5-4.15-14.36-5.89v-52.41h40.05c8.45,0,16.02-4.37,20.25-11.69s4.23-16.06,0-23.38Zm-262.67-9.95c-.56-.96-1.67-3.51,0-6.4l23.66-40.98c1.43-2.48,1.43-5.52,0-8-1.43-2.48-4.07-4-6.93-4h-6.29c-3.33,0-4.99-2.24-5.54-3.2-.55-.96-1.67-3.51,0-6.4l19.03-32.95c1.25-2.17,1.42-4.8.45-7.1-.97-2.31-2.97-4.03-5.39-4.65-1.88-.48-3.48-1.88-4.26-3.75-.45-1.08-1.01-3.25.37-5.64l29.42-50.96c1.67-2.89,4.43-3.2,5.54-3.2s3.87.31,5.54,3.2l29.42,50.96c1.38,2.39.83,4.56.37,5.64-.79,1.86-2.38,3.26-4.26,3.75-2.43.62-4.42,2.34-5.39,4.65s-.81,4.94.45,7.1l19.03,32.95c1.67,2.89.55,5.44,0,6.4-.56.96-2.21,3.2-5.54,3.2h-6.29c-2.86,0-5.5,1.52-6.93,4-1.43,2.48-1.43,5.52,0,8l23.66,40.98c1.67,2.89.55,5.44,0,6.4-.55.96-2.21,3.2-5.54,3.2h-89.02c-3.33,0-4.99-2.24-5.54-3.2Zm234.33,133.93c2.63,3.89,4.62,8.09,5,12.89.55,7.02-3.08,12.2-7.56,16.92-8.18,8.61-18.42,14.16-29.15,18.83-18.7,8.14-38.22,13.68-58.12,18.03-15.72,3.44-31.63,5.64-47.62,6.92-19.44,1.56-38.93,2.35-53.65,3.19-21.34-.79-37.89-1.04-54.39-2.11-23.5-1.53-46.79-4.79-69.72-10.34-14.27-3.46-28.43-7.37-41.21-14.83-5.02-2.93-9.77-6.57-13.96-10.6-7.73-7.42-7.49-16.29-.13-24.06,4.72-4.98,10.49-8.34,16.57-11.28,7.18-3.47,14.49-6.68,21.51-10.43,5.41-2.88,9.99-6.82,11.44-13.29,1.06-4.69.31-9.14-1.95-13.3-1.57-2.91-3.45-5.65-5.1-8.53-3.58-6.24-3.01-10.31,1.88-15.67,5.25-5.76,11.92-9.17,19.06-11.89,13.08-4.99,26.72-7.43,40.53-9.31,22.63-3.07,45.36-3.54,68.11-2.88,10.95.32,21.87,1.78,32.79,2.94,12.41,1.31,24.61,3.81,36.62,7.2,11.5,3.25,21.25,9.21,28.99,18.44,10.28,12.26,24.13,18.44,39.15,22.46,12.51,3.35,25.13,6.37,36.98,11.78,9.52,4.34,17.93,10.1,23.89,18.91Zm14.48-108.6c-.64,1.11-2.55,3.69-6.39,3.69h-95.1c-3.85,0-5.75-2.58-6.39-3.69s-1.92-4.05,0-7.38l25.28-43.78c1.43-2.48,1.43-5.52,0-8-1.43-2.48-4.07-4-6.93-4h-6.72c-3.85,0-5.75-2.58-6.39-3.69-.64-1.11-1.92-4.05,0-7.38l20.32-35.2c1.25-2.17,1.42-4.8.45-7.1-.97-2.31-2.97-4.03-5.39-4.65-2.18-.56-4.02-2.17-4.92-4.32-.52-1.25-1.17-3.75.43-6.51l31.43-54.44c1.92-3.33,5.11-3.69,6.39-3.69s4.47.36,6.39,3.69l31.43,54.44c1.59,2.76.95,5.27.43,6.51-.9,2.15-2.74,3.76-4.92,4.32-2.42.62-4.42,2.34-5.39,4.65-.97,2.31-.81,4.94.45,7.1l20.32,35.2c1.92,3.33.64,6.27,0,7.38s-2.55,3.69-6.39,3.69h-6.72c-2.86,0-5.5,1.52-6.93,4-1.43,2.48-1.43,5.52,0,8l25.28,43.78c1.92,3.33.64,6.27,0,7.38Z" fill="#fff"/>
</svg>