<?xml version="1.0" encoding="UTF-8"?>
<svg id="ICONS" xmlns="http://www.w3.org/2000/svg" viewBox="0 0 600 600">
  <path d="m454.34,443.75c-4.91,4.91-20.65,17.66-34.34,17.66-12.64,0-26.25-10.55-31.51-15.08-4.92-4.24-12.05-4.24-16.97,0-.76.66-1.57,1.39-2.44,2.17-6.02,5.45-14.27,12.91-29.08,12.91s-21.5-6.29-27.76-11.84c-.99-.87-1.92-1.7-2.83-2.46-2.69-2.25-6.25-3.33-9.73-2.95-3.49.38-6.73,2.19-8.88,4.97-3.52,4.56-13.98,12.28-30.8,12.28-21.07,0-30.41-11.78-30.8-12.28-2.15-2.78-5.39-4.59-8.88-4.97-3.48-.38-7.03.7-9.73,2.95-.95.79-1.92,1.66-2.95,2.58-6.16,5.5-13.14,11.72-27.64,11.72-13.59,0-29.39-12.74-34.34-17.66-3.12-3.12-8.19-3.12-11.31,0-3.12,3.12-3.12,8.19,0,11.31.91.91,22.61,22.34,45.66,22.34,20.6,0,31.25-9.5,38.3-15.79.11-.1.21-.19.32-.29,7.44,7.89,21.87,16.07,41.38,16.07s33.79-7.91,41.4-16.07c.08.07.15.13.23.2,7.13,6.32,17.9,15.87,38.38,15.87s32.77-10.67,39.81-17.05c.08-.07.16-.15.25-.22,8.7,7.13,23.91,17.27,39.94,17.27,23.05,0,44.74-21.43,45.66-22.34,3.12-3.12,3.12-8.19,0-11.31-3.12-3.12-8.19-3.12-11.31,0Z" fill="#fff"/>
  <path d="m476.25,213.84c-4.46-16.29-19.45-27.25-37.96-27.89-22.03-.75-41.25,16.9-41.91,38.83-.38,12.74-.23,25.5-.32,38.26,0,1.33,0,2.66,0,3.87h-117.88c0-9.4-.09-18.49.03-27.58.07-5.54-.06-11.16.85-16.58,1.79-10.7,12.25-19.06,23.13-19.18,11.56-.13,21.2,7.34,23.67,18.33,1.27,5.67,5.04,8.41,10.24,7.43,4.66-.87,7.19-5.62,6.31-11.15-3.24-20.6-22.28-32.16-38.23-32.27-24.28-.16-43.42,18.29-43.43,42.56-.02,58.22,0,116.44,0,174.66,0,.3.01.6.03.89-.26,0-.52.02-.79.02-21.07,0-30.41-11.78-30.8-12.28-2.15-2.78-5.39-4.59-8.88-4.97-3.48-.38-7.03.7-9.73,2.95-.95.79-1.92,1.66-2.95,2.58-6.16,5.5-13.14,11.72-27.64,11.72-13.59,0-29.39-12.74-34.34-17.66-3.12-3.12-8.19-3.12-11.31,0-3.12,3.12-3.12,8.19,0,11.31.91.91,22.61,22.34,45.66,22.34,20.6,0,31.25-9.5,38.29-15.79.11-.1.21-.19.32-.29,7.44,7.89,21.87,16.07,41.38,16.07s33.79-7.91,41.4-16.07c.08.07.15.13.23.2,7.13,6.32,17.9,15.87,38.38,15.87s32.77-10.67,39.81-17.05c.08-.08.17-.15.25-.22,8.71,7.13,23.91,17.27,39.94,17.27,23.05,0,44.74-21.43,45.66-22.34,3.12-3.12,3.12-8.19,0-11.31-3.12-3.12-8.19-3.12-11.31,0-4.91,4.91-20.65,17.66-34.34,17.66-2.05,0-4.13-.28-6.19-.77,0-.04,0-.09,0-.13.02-57.21,0-114.42.05-171.63,0-3.01.25-6.05.71-9.03,2.08-13.44,15.55-22.45,28.45-18.95,9.93,2.69,15.79,9.29,17.77,19.38.91,4.64,4.78,7.61,9.21,7.17,4.39-.44,7.62-4.12,7.42-8.83-.11-2.49-.51-5.01-1.17-7.41Zm-197.96,71.07h117.62v51.66h-117.62v-51.66Zm110.2,104.05c-4.92-4.24-12.05-4.24-16.97,0-.76.66-1.57,1.39-2.44,2.17-6.02,5.45-14.27,12.91-29.07,12.91s-21.5-6.29-27.76-11.84c-.99-.88-1.92-1.71-2.83-2.46-2.69-2.25-6.25-3.33-9.73-2.95-3.49.38-6.73,2.19-8.88,4.97-2,2.59-6.25,6.2-12.62,8.84,0-13.8,0-27.61,0-41.41v-4.07h118.08c.05,1.02.12,1.76.12,2.49,0,12.46.02,24.93-.02,37.39-3.34-2.27-6.09-4.5-7.87-6.04Z" fill="#fff"/>
</svg>