<svg width="48" height="48" viewBox="0 0 48 48" fill="none" xmlns="http://www.w3.org/2000/svg">
<path d="M33 16V18H15V16H33Z" fill="white"/>
<path d="M33 30V32H27C26.4477 32 26 31.5523 26 31C26 30.4477 26.4477 30 27 30H33Z" fill="white"/>
<path d="M39 24C39 27.3137 36.3137 30 33 30V32C37.4183 32 41 28.4183 41 24C41 19.5817 37.4183 16 33 16V18C36.3137 18 39 20.6863 39 24Z" fill="white"/>
<path d="M9 24C9 20.6863 11.6863 18 15 18V16C10.5817 16 7 19.5817 7 24C7 28.4183 10.5817 32 15 32V30C11.6863 30 9 27.3137 9 24Z" fill="white"/>
<path d="M16.9287 23.9287C17.3191 23.5383 17.9522 23.5385 18.3428 23.9287L24.707 30.293C25.0976 30.6835 25.0976 31.3165 24.707 31.707L18.3428 38.0713C17.9522 38.4615 17.3191 38.4617 16.9287 38.0713C16.5383 37.6809 16.5385 37.0478 16.9287 36.6572L21.5859 32H15V30H21.5859L16.9287 25.3428C16.5385 24.9522 16.5383 24.3191 16.9287 23.9287Z" fill="white"/>
</svg>
