<svg width="48" height="48" viewBox="0 0 48 48" fill="none" xmlns="http://www.w3.org/2000/svg">
<path d="M16.0713 36.0713C15.6809 36.4617 15.0478 36.4615 14.6572 36.0713L8.29297 29.707C7.90245 29.3165 7.90245 28.6835 8.29297 28.293L14.6572 21.9287C15.0478 21.5385 15.6809 21.5383 16.0713 21.9287C16.4617 22.3191 16.4615 22.9522 16.0713 23.3428L11.4141 28L38 28C38.5523 28 39 28.4477 39 29C39 29.5523 38.5523 30 38 30L11.4141 30L16.0713 34.6572C16.4615 35.0478 16.4617 35.6809 16.0713 36.0713Z" fill="white"/>
<path d="M30.9287 10.9287C31.3191 10.5383 31.9522 10.5385 32.3428 10.9287L38.707 17.293C39.0976 17.6835 39.0976 18.3165 38.707 18.707L32.3428 25.0713C31.9522 25.4615 31.3191 25.4617 30.9287 25.0713C30.5383 24.6809 30.5385 24.0478 30.9287 23.6572L35.5859 19H9C8.44772 19 8 18.5523 8 18C8 17.4477 8.44772 17 9 17H35.5859L30.9287 12.3428C30.5385 11.9522 30.5383 11.3191 30.9287 10.9287Z" fill="white"/>
</svg>
