<?xml version="1.0" encoding="UTF-8"?>
<svg id="ICONS" xmlns="http://www.w3.org/2000/svg" viewBox="0 0 600 600">
  <path d="m505.85,446.48l-199.18-301.78c-1.48-2.24-3.99-3.59-6.68-3.59s-5.2,1.35-6.68,3.59L94.15,446.48c-1.62,2.46-1.76,5.61-.37,8.2,1.4,2.59,4.1,4.21,7.04,4.21h398.35c2.94,0,5.65-1.62,7.04-4.21,1.39-2.59,1.25-5.74-.37-8.2Zm-205.85-282.85l72.37,109.65-34.81-22.57c-3.48-2.26-8.11-1.48-10.66,1.79l-27.1,34.74-29.03-34.94c-2.62-3.15-7.2-3.81-10.61-1.53l-31.7,21.26,71.55-108.41ZM115.69,442.89l89.95-136.29,57.43-38.51,30.77,37.02c1.52,1.83,3.78,2.89,6.15,2.89.04,0,.08,0,.12,0,2.42-.04,4.7-1.17,6.18-3.08l28.71-36.8,59.36,38.48,89.95,136.29H115.69Z" fill="#fff"/>
</svg>