<?xml version="1.0" encoding="UTF-8"?>
<svg id="ICONS" xmlns="http://www.w3.org/2000/svg" viewBox="0 0 600 600">
  <path d="m232.13,377.33c3.17,17.58,7.63,34.88,13.56,51.76,1.87,5.33,6.72,7.86,11.44,6.23,5.08-1.75,7.4-6.84,5.6-12.29-.97-2.92-2.02-5.81-2.93-8.75-8.91-28.9-13.8-58.56-16.59-88.61-.17-1.82.49-2.67,2.04-3.54,17.69-9.87,35.34-19.81,52.94-29.84,1.56-.89,2.51-.59,3.84.16,16.12,9.1,32.18,18.31,48.46,27.12,4.45,2.41,6.65,4.55,5.65,10.23-2.34,13.25-3.44,26.71-5.63,39.99-2.99,18.14-7.37,35.97-13.51,53.34-1.64,4.64.55,9.56,4.66,11.55,3.91,1.89,8.38.84,10.93-2.82.98-1.4,1.59-3.11,2.13-4.75,13.03-39.66,19.83-80.37,20.68-124.86-.36-5.7-.83-14.14-1.44-22.57-1.17-16.16-4.49-31.93-9.06-47.43-11.7-39.63-30.29-75.63-57.08-107.26-5.53-6.53-10.69-6.73-16.04-.14-4.09,5.04-8.26,10.04-12.01,15.33-30.02,42.27-49.12,88.73-54.08,140.67-1.73,18.16-1.55,36.3.33,54.38,1.47,14.1,3.6,28.15,6.12,42.1Zm67.69-233.44c25.77,33.67,43.25,70.65,52.45,112.06-9.79-5.63-19.16-11.12-28.62-16.44-6.62-3.73-13.39-7.19-20.04-10.87-2.61-1.45-5.01-1.39-7.58.05-13.89,7.79-27.81,15.54-41.72,23.3-2.05,1.14-4.07,2.33-6.71,3.85,9.09-41.52,26.57-78.38,52.23-111.95Zm-56.4,140.04c-.08-4.71,2.33-6.65,5.97-8.67,16.09-8.93,32.04-18.1,48-27.25,1.67-.96,2.91-1.05,4.67-.04,16.86,9.65,33.76,19.23,50.73,28.7,2.21,1.23,3.27,2.49,3.36,5.11.24,6.89.83,13.77,1.32,21.38-5.96-3.39-11.28-6.41-16.6-9.44-11.43-6.52-22.94-12.9-34.26-19.62-4.6-2.73-8.57-2.64-13.16.04-15.63,9.1-31.42,17.94-47.15,26.87-1.13.64-2.28,1.25-3.98,2.18.43-6.77,1.2-13.02,1.09-19.25Z" fill="#fff"/>
  <path d="m465.6,446.16c-3.12-3.12-8.19-3.12-11.31,0-4.91,4.91-20.65,17.66-34.34,17.66-12.64,0-26.25-10.55-31.51-15.08-4.92-4.24-12.05-4.24-16.97,0-.76.66-1.57,1.39-2.44,2.17-6.02,5.45-14.27,12.91-29.08,12.91s-21.5-6.29-27.76-11.84c-.99-.87-1.92-1.7-2.83-2.46-2.69-2.25-6.24-3.33-9.73-2.95-3.49.38-6.73,2.19-8.88,4.97-3.52,4.56-13.98,12.28-30.8,12.28-21.07,0-30.41-11.78-30.8-12.28-2.15-2.78-5.39-4.6-8.88-4.97-3.49-.38-7.03.7-9.73,2.95-.95.79-1.92,1.66-2.95,2.58-6.16,5.5-13.14,11.72-27.64,11.72-13.59,0-29.39-12.74-34.34-17.66-3.12-3.12-8.19-3.12-11.31,0-3.12,3.12-3.12,8.19,0,11.31.91.91,22.61,22.34,45.66,22.34,20.6,0,31.25-9.5,38.3-15.79.11-.1.21-.19.32-.29,7.44,7.89,21.87,16.07,41.38,16.07s33.79-7.91,41.4-16.07c.07.07.15.13.22.2,7.13,6.32,17.9,15.87,38.38,15.87s32.77-10.67,39.81-17.05c.08-.07.16-.15.24-.22,8.7,7.13,23.91,17.27,39.94,17.27,23.05,0,44.74-21.43,45.66-22.34,3.12-3.12,3.12-8.19,0-11.31Z" fill="#fff"/>
</svg>