<?xml version="1.0" encoding="UTF-8"?>
<svg id="ICONS" xmlns="http://www.w3.org/2000/svg" viewBox="0 0 600 600">
  <path d="m408.51,272.96c.46-4.63,1.11-8.76,1.24-12.92.16-5.2,3.03-7.98,7.72-8.2,4.86-.22,7.71,3.02,8.41,7.71.3,2.02-.15,4.19-.43,6.27-.85,6.31-.44,11.54,4.34,17.16,10.29,12.09,6.74,29.99-6.36,39.18-1.49,1.05-3.24,2.93-3.37,4.54-2.29,29.57-4.36,59.15-6.47,88.73-1.3,18.25-2.53,36.51-3.97,54.76-.4,5.06-2.62,8.95-8.6,8.79-5.25-.14-8-3.41-7.57-10.09,1.24-19.52,2.74-39.02,4.19-58.52,1.5-20.13,3.08-40.26,4.58-60.39.57-7.69,1.03-15.38,1.58-23.71-16.57,0-32.33-.44-48.06.13-14.52.53-24.51-5.6-31.2-18.09-2.66-4.96-5.55-9.79-8.91-15.68-3.11,8.75-6.12,16.43-8.41,24.31-.52,1.8,1.02,4.63,2.33,6.47,10.42,14.51,20.87,29,31.6,43.28,7.17,9.55,12.71,19.4,13.66,31.82,1.33,17.36,3.89,34.63,5.76,51.96,1.78,16.52-10.73,28.15-23.79,29.65-15.51,1.79-27.81-7.83-30.72-24.1-2.73-15.27-4.77-30.66-7.69-45.89-.82-4.28-3.19-8.51-5.73-12.15-2.85-4.09-6.7-7.48-10.61-11.7-.6,1.67-1.06,2.88-1.47,4.12-3.9,11.73-9.9,21.83-19.18,30.47-16.95,15.77-33,32.52-49.57,48.71-11.27,11.02-26.12,12.36-37.13,3.7-12.97-10.22-13.97-28-2.41-40.63,14.64-16,28.96-32.3,43.88-48.03,6.64-7,10.6-14.97,12.59-24.15,2.45-11.26,4.74-22.55,7.23-33.8.94-4.24.24-6.15-4.76-7.26-8.92-1.98-18.11-4.25-26.16-8.39-17.31-8.88-25.31-28.63-19.47-47.14,5.85-18.54,12.27-36.92,19.16-55.1,6.93-18.29,22.86-28.51,42.39-27.35,8.29.5,16.61,2.25,24.67,4.37,4.06,1.07,8.53,3.46,11.13,6.64,4.83,5.91,11.02,8.57,17.86,10.61,2.01.6,3.98,1.3,5.99,1.9,22.63,6.78,39.62,19.45,46.79,43.2,2.22,7.36,5.98,14.29,9.35,21.26.73,1.52,2.81,3.37,4.29,3.4,13.65.26,27.31.15,41.3.15Zm-119.59-57.27c-2,5.35-3.62,9.65-5.21,13.96-9.79,26.5-19.75,52.94-29.29,79.53-4.56,12.71-1.16,23.82,8.25,33.42,13.56,13.84,26.91,27.89,40.36,41.84,5.82,6.04,9.73,12.92,10.97,21.44,2.21,15.14,4.94,30.2,7.33,45.32,1.29,8.14,6.31,13.1,13.07,12.56,7.11-.57,10.68-5.65,9.82-14.69-1.23-12.96-3.41-25.85-3.99-38.83-.7-15.69-7.26-28.26-16.83-40.23-10.36-12.94-19.49-26.86-29.37-40.19-4.27-5.76-5.06-11.27-2.39-18.16,5.36-13.85,9.68-28.09,14.95-41.98,1.07-2.81,4.32-6.46,6.77-6.62,2.49-.16,6.15,2.95,7.72,5.58,6.54,10.99,12.52,22.31,18.64,33.55,2.77,5.07,6.83,7.65,12.71,7.62,18.54-.1,37.07,0,55.61-.1,7.02-.04,11.16-3.91,11.2-10,.05-6.46-4.21-10.36-11.5-10.36-15.38,0-30.76-.11-46.13.17-5.42.1-8.54-2-10.64-6.89-5.54-12.89-11.64-25.55-16.99-38.52-3.26-7.9-8.63-13.42-16.17-16.74-9.37-4.12-18.97-7.69-28.9-11.67Zm-50.84,88.9c11.89-31.78,23.47-62.9,35.24-93.95,1.31-3.46.61-5.92-2.39-7.16-4.78-1.98-9.74-3.78-14.79-4.83-19.98-4.14-33.08,3.96-38.6,21.74-4.77,15.35-10.65,30.35-15.76,45.6-5.01,14.95,2.31,28.96,17.43,33.6,6.17,1.9,12.49,3.33,18.87,5.01Zm9.88,45.94c-1.47,5.92-2.17,10.74-3.88,15.17-2.97,7.72-5.18,16.31-10.18,22.57-11.38,14.27-24.26,27.34-36.53,40.91-4.65,5.14-9.59,10.06-13.85,15.52-5.86,7.51-2.33,17.12,6.53,17.24,3.65.05,8.11-2.34,10.89-5,15.52-14.8,30.02-30.72,46.11-44.85,11.28-9.9,16.81-22.11,20.59-35.76.46-1.67.06-4.32-1.03-5.57-5.77-6.64-11.9-12.97-18.66-20.23Z" fill="#fff"/>
  <path d="m382.01,161.74c.03,23.78-18.96,42.86-42.66,42.86-23.38,0-43.41-20.09-43.28-43.44.12-22.77,19.38-41.5,42.65-41.49,24.21,0,43.25,18.52,43.29,42.07Zm-16.36.7c.05-14.99-11.64-26.95-26.43-27.05-14.46-.1-26.76,11.92-26.75,26.15,0,14.62,12.25,26.73,26.97,26.67,14.41-.06,26.17-11.61,26.22-25.77Z" fill="#fff"/>
</svg>