<?xml version="1.0" encoding="UTF-8"?>
<svg id="ICONS" xmlns="http://www.w3.org/2000/svg" viewBox="0 0 600 600">
  <g id="qKJBEm">
    <g>
      <path d="m299.55,160.55c48.46,0,96.93,0,145.39,0,17.37,0,33.12,14.16,34.59,31.48.59,6.95.44,13.98.44,20.98.03,63.27.01,126.53,0,189.8,0,17.61-11.44,31.99-28.59,35.87-2.07.47-4.24.73-6.37.73-96.61.04-193.22.04-289.83.02-17.47,0-32.89-13.81-34.76-31.09-.26-2.44-.42-4.91-.43-7.37-.02-68.2-.02-136.4-.02-204.6,0-17.32,10.92-31.15,27.8-35.05,2.22-.51,4.55-.75,6.84-.75,48.31-.04,96.61-.03,144.92-.03Zm164.65,172.5c.06-.78.1-1.02.1-1.25,0-45.52.05-91.05-.05-136.57-.01-6.03-2.92-10.92-7.62-14.71-4.61-3.72-9.99-4.37-15.68-4.37-90.49.04-180.98.02-271.47.03-5.33,0-10.67-.06-15.99.16-9.15.38-17.72,9.26-17.72,18.32-.02,61.68-.01,123.36,0,185.04,0,.56.11,1.13.23,2.27.93-1.08,1.47-1.78,2.08-2.4,26.14-26.31,52.29-52.61,78.44-78.9,3.87-3.89,7.67-3.86,11.53.03,7.63,7.67,15.27,15.34,22.89,23.02,3.91,3.93,7.79,7.89,11.81,11.95.85-.93,1.5-1.62,2.12-2.32,12.61-14.13,25.21-28.25,37.81-42.38,11.38-12.77,22.74-25.55,34.11-38.33,6.77-7.61,13.48-15.26,20.35-22.78,1.16-1.27,2.84-2.37,4.48-2.86,3.94-1.18,6.5,1.26,8.96,3.95,13.57,14.87,27.19,29.68,40.8,44.52,13.28,14.48,26.55,28.98,39.83,43.46,4.23,4.61,8.47,9.2,13.01,14.13Zm-190.8,14.03c.88.73,1.66,1.28,2.34,1.95,23.7,23.68,47.44,47.33,71.03,71.12,2.57,2.59,5.06,3.58,8.68,3.56,29.53-.14,59.05-.06,88.58-.08,11.02,0,20.21-8.87,20.26-19.57.06-15.28.03-30.56-.03-45.84,0-.91-.42-2.03-1.02-2.71-10.71-11.88-21.45-23.73-32.23-35.53-16.69-18.27-33.42-36.5-50.13-54.75-5.84-6.38-11.68-12.77-17.61-19.26-29.91,33.65-59.7,67.18-89.86,101.12Zm54.27,76.55c.19-.29.38-.57.58-.86-35.58-35.02-71.15-70.04-106.86-105.18-.36.39-1.14,1.3-1.99,2.14-26.96,27.05-53.87,54.15-80.96,81.07-2.67,2.65-2.9,5.01-1.97,8.19,2.65,9,10.11,14.64,19.63,14.64,55.7,0,111.4,0,167.1,0,1.49,0,2.98,0,4.47,0Z" fill="#fff"/>
      <path d="m274.3,245.41c-.04,19.34-15.19,34.45-34.29,34.59-17.99.14-34.7-14.52-34.76-34.55-.06-18.99,15.62-34.76,34.43-34.64,19.42.13,34.66,15.36,34.62,34.59Zm-34.38,18.91c9.95.17,18.7-8.19,19.09-17.78.42-10.6-7.73-19.52-18-20.13-11.18-.67-19.69,8.32-20.29,17.51-.76,11.6,9.02,20.51,19.2,20.39Z" fill="#fff"/>
    </g>
  </g>
</svg>