<?xml version="1.0" encoding="UTF-8"?>
<svg id="ICONS" xmlns="http://www.w3.org/2000/svg" viewBox="0 0 600 600">
  <g>
    <path d="m439.68,127.02c0-.1-.01-.2-.02-.3-.01-.13-.02-.26-.04-.39-.02-.11-.03-.21-.05-.31-.02-.12-.05-.23-.08-.35-.03-.11-.06-.22-.09-.33-.03-.11-.06-.21-.1-.31-.04-.11-.08-.22-.13-.33-.04-.1-.08-.19-.13-.29-.05-.11-.11-.22-.16-.32-.05-.09-.1-.18-.15-.27-.06-.1-.12-.2-.19-.3-.06-.09-.12-.18-.19-.27-.07-.09-.13-.18-.2-.26-.07-.09-.15-.18-.22-.27-.07-.08-.14-.16-.21-.23-.08-.09-.17-.17-.26-.25-.07-.07-.15-.14-.23-.2-.09-.08-.19-.16-.29-.23-.08-.06-.17-.12-.25-.18-.1-.07-.2-.14-.3-.2-.09-.06-.19-.11-.28-.17-.1-.05-.2-.11-.3-.16-.11-.05-.22-.1-.33-.15-.09-.04-.19-.08-.29-.12-.13-.05-.25-.09-.38-.13-.09-.03-.18-.06-.27-.08-.14-.04-.27-.07-.41-.1-.06-.01-.12-.03-.17-.04-1.45-.26-35.85-6.07-65.82,22.87-13.28,12.82-14.8,37.37-16.28,61.12-.41,6.63-.8,12.88-1.44,18.7-1.4,12.79-9.61,24.22-21.43,29.82l-.76.36c-.11.05-.23.1-.34.14-30.55,10.83-50.9,31.65-60.47,61.88-2.43,7.66-3.82,16.21-4.14,25.41-.44,12.83-.33,32.32-.24,47.98.03,5.38.06,10.35.06,14.54,0,3.21,2.61,5.81,5.82,5.81h2.37c3.21,0,5.81-2.6,5.81-5.8,0-4.21-.03-9.21-.06-14.63-.09-15.54-.2-34.87.23-47.42.27-7.92,1.45-15.21,3.49-21.66,8.21-25.92,25.74-43.76,52.06-53.01.38-.13.75-.29,1.12-.46l1.04-.49c16.19-7.67,27.44-23.36,29.36-40.95.67-6.14,1.07-12.56,1.49-19.35,1.25-20.09,2.67-42.87,12.03-51.92,9.41-9.08,19.27-14.05,27.94-16.71,3.7-1.13,6.67,3.15,4.31,6.22l-3.84,5c-6.76,8.8-11.45,18.73-13.93,29.5-2.3,9.99-4.73,23.19-5.09,25.83h-.01s-3.89,36.55-3.89,36.55c-.29,2.72,1.3,5.3,3.86,6.24,1.1.4,2.17.64,3.2.64,3.53,0,6.57-2.67,6.95-6.26l3.77-35.37c0-.08.02-.15.03-.23.39-2.33,2.48-14.04,4.83-24.26,2.03-8.81,5.86-16.92,11.39-24.12h0c2.36-3.07,7.26-1.3,7.11,2.57l-3.99,104c-.14,2.79-1.62,11.62-6.44,15.52l-.24.21c-2.42,2.15-3.77,2.69-7.36,4.14-2.14.86-4.78,1.93-8.38,3.63-.11.05-.22.1-.33.14-30.56,10.83-50.91,31.65-60.49,61.89-2.43,7.67-3.82,16.21-4.13,25.4-.41,11.84-.35,18.02-.26,26.58.04,3.81.08,8.09.08,13.55,0,3.21,2.61,5.82,5.82,5.82h2.37c3.21,0,5.81-2.61,5.81-5.82,0-5.52-.05-9.84-.08-13.69-.08-8.38-.14-14.43.26-25.96.27-7.92,1.45-15.21,3.49-21.66,8.21-25.92,25.74-43.76,52.11-53.02.35-.12.7-.27,1.06-.44,3.38-1.61,5.9-2.62,7.92-3.44,4.13-1.67,7.13-2.87,11.3-6.54,10.35-8.49,11.41-23.87,11.5-25.68l5.21-136.01c0-.07,0-.13,0-.2,0-.13,0-.27,0-.4Z" fill="#fff"/>
    <path d="m368.8,273.77c-1.55-3.54-5.67-5.16-9.22-3.61-20.54,8.98-48.98,24.49-58.78,55.44-2.43,7.66-3.82,16.21-4.13,25.4-.44,12.65-.33,28.82-.25,43.09.03,5.13.06,10.03.07,14.46,0,3.21,2.61,5.81,5.82,5.81h2.37c3.21,0,5.81-2.6,5.81-5.81,0-4.45-.03-9.38-.07-14.54-.09-14.14-.19-30.16.24-42.53.27-7.92,1.45-15.21,3.49-21.66,6.24-19.69,21.98-34.13,51.04-46.84,3.54-1.55,5.16-5.68,3.61-9.22Z" fill="#fff"/>
  </g>
  <path d="m211.59,425.22c2.87,1.52,5.75,3.01,8.81,3.82,11.18,2.94,22.47,5.58,33.86,7.51,18.39,3.1,37.03,3.59,55.64,3.1,24.39-.65,48.7-2.27,72.2-9.73,7.91-2.51,15.4-5.8,21.83-11.26,3.21-2.73,7.92-2.26,10.51.65,2.58,2.91,2.48,7.58-.37,10.57-6.37,6.7-14.61,10.31-23.07,13.35-12.58,4.52-25.64,6.98-38.87,8.84-21.54,3.03-43.19,3.76-64.86,2.91-25.49-1-50.85-3.51-74.88-12.9-5.58-2.18-11.07-5.34-15.63-9.2-7.03-5.95-6.9-14.37-.81-21.39,3.7-4.26,8.26-7.26,13.43-9.38,2.91-1.19,5.79-2.53,8.79-3.44,4.32-1.3,8.47.71,9.86,4.45,1.54,4.12-.34,8.33-4.73,10.23-3.07,1.33-6.3,2.3-9.32,3.73l-2.23,1.06c-2.95,1.4-3.04,5.56-.15,7.09Z" fill="#fff"/>
  <path d="m463.39,421.95c.06.33.09.67.07,1.01-.83,11.86-6.3,19.39-13.63,25.77-11.73,10.22-25.63,16.57-40.16,21.5-9.7,3.29-19.65,5.84-29.55,8.54-4.79,1.3-8.66-.63-10.41-4.69-1.45-3.38-.28-7.38,3.03-9.3,1.54-.89,3.4-1.3,5.16-1.72,16.95-4.02,33.64-8.83,49.03-17.25,6.56-3.59,12.81-7.67,17.29-13.89,4.56-6.32,4.5-11.23-.06-17.61-3.98-5.56-9.47-9.27-15.29-12.51-13.71-7.62-28.56-12.13-43.78-15.54-2.97-.67-5.98-1.22-8.95-1.87-4.4-.97-7.58-5.01-6.94-8.76.74-4.35,4.47-7.36,9.2-6.49,23.04,4.21,45.45,10.3,65.18,23.63,7.82,5.28,14.61,11.61,17.92,20.73,1.13,3.1,1.53,6.47,1.89,8.43Z" fill="#fff"/>
  <path d="m136.54,423.02c.15-10.03,5.32-17.76,12.49-24.4,10.06-9.31,22.06-15.43,34.92-19.58,11.95-3.85,24.23-6.7,36.42-9.78,4.88-1.23,9.42,1.56,10.27,5.79.92,4.6-2.02,8.33-7.35,9.41-18.35,3.72-36.51,8.2-52.83,17.78-5.1,3-10.06,6.79-13.94,11.22-6.31,7.2-5.47,14.05,1.19,21.16,6.71,7.18,15.25,11.46,24.04,15.36,4.41,1.96,6.27,5.3,5.28,9.47-.99,4.17-5.64,6.85-9.88,5.14-12.97-5.23-25.13-11.76-34-23.06-4.2-5.36-6.67-11.39-6.63-18.52Z" fill="#fff"/>
</svg>