<?xml version="1.0" encoding="UTF-8"?>
<svg id="ICONS" xmlns="http://www.w3.org/2000/svg" viewBox="0 0 600 600">
  <path d="m300,124.24c46.95,0,91.08,18.28,124.28,51.48s51.48,77.33,51.48,124.28-18.28,91.08-51.48,124.28c-33.2,33.2-77.33,51.48-124.28,51.48s-91.08-18.28-124.28-51.48c-33.2-33.2-51.48-77.33-51.48-124.28s18.28-91.08,51.48-124.28c33.2-33.2,77.33-51.48,124.28-51.48m0-4c-99.28,0-179.76,80.48-179.76,179.76s80.48,179.76,179.76,179.76,179.76-80.48,179.76-179.76-80.48-179.76-179.76-179.76h0Z" fill="#fff"/>
</svg>